<svg width="429" height="426" viewBox="0 0 429 426" fill="none" xmlns="http://www.w3.org/2000/svg">
<path fill-rule="evenodd" clip-rule="evenodd" d="M85.1982 23.2358C85.1982 10.403 95.6012 0 108.434 0L147.16 0C159.993 0 170.396 10.403 170.396 23.2359V61.9623C170.396 74.7951 159.993 85.1982 147.16 85.1982L108.434 85.1982C102.398 85.1982 95.8604 85.9016 91.5923 90.1697L90.1697 91.5923C85.9016 95.8604 85.1982 102.398 85.1982 108.434L85.1982 317.557C85.1982 317.679 85.1972 317.801 85.1953 317.923C85.0969 324.304 85.6753 331.29 90.1881 335.803C94.7009 340.316 101.687 340.894 108.068 340.795C108.19 340.794 108.312 340.793 108.434 340.793H147.16C153.007 340.793 159.315 340.056 163.449 335.922L165.525 333.845C169.66 329.711 170.396 323.404 170.396 317.557L170.396 108.434C170.396 95.6012 180.799 85.1982 193.632 85.1982L232.359 85.1982C238.468 85.1982 245.097 84.5086 249.417 80.1884L250.585 79.0206C254.905 74.7003 255.594 68.0721 255.594 61.9623V23.2358C255.594 10.403 265.998 0 278.83 0L317.557 0C330.39 0 340.793 10.403 340.793 23.2359V61.9623C340.793 67.7131 341.544 73.9037 345.611 77.9701L348.021 80.3799C352.087 84.4463 358.278 85.1982 364.029 85.1982L402.755 85.1982C415.588 85.1982 425.991 95.6012 425.991 108.434L425.991 317.557C425.991 330.39 415.588 340.793 402.755 340.793H364.028C357.969 340.793 351.403 341.492 347.118 345.776L345.776 347.118C341.492 351.403 340.793 357.969 340.793 364.029V402.755C340.793 415.588 330.39 425.991 317.557 425.991H278.83C265.998 425.991 255.594 415.588 255.594 402.755V364.029C255.594 351.196 265.998 340.793 278.83 340.793H317.557C323.903 340.793 330.823 340.152 335.31 335.665L335.665 335.31C340.152 330.823 340.793 323.903 340.793 317.557L340.793 108.434C340.793 108.278 340.794 108.122 340.797 107.966C340.923 101.604 340.355 94.6349 335.856 90.1352C331.356 85.6354 324.387 85.0679 318.025 85.1936C317.869 85.1966 317.713 85.1982 317.557 85.1982L278.83 85.1982C272.532 85.1982 265.672 85.8495 261.219 90.3027L260.699 90.8221C256.246 95.2755 255.595 102.136 255.595 108.434L255.595 317.557C255.595 330.39 245.191 340.793 232.359 340.793H193.632C193.55 340.793 193.467 340.792 193.385 340.791C186.981 340.725 179.975 341.316 175.447 345.844C170.919 350.372 170.328 357.378 170.395 363.781C170.396 363.863 170.396 363.946 170.396 364.029V402.755C170.396 415.588 159.993 425.991 147.16 425.991H108.434C95.6012 425.991 85.1982 415.588 85.1982 402.755L85.1982 364.029C85.1982 358.233 84.4533 351.988 80.3553 347.89L78.1005 345.636C74.0025 341.538 67.7578 340.793 61.9623 340.793H23.2358C10.403 340.793 0 330.39 0 317.557L0 108.434C0 95.6012 10.403 85.1982 23.2359 85.1982L61.9623 85.1982C68.331 85.1982 75.2794 84.5623 79.7827 80.059L80.059 79.7827C84.5623 75.2794 85.1982 68.3309 85.1982 61.9623L85.1982 23.2358Z" fill="#1E2B2B"/>
<path d="M400.034 420.855V405.643H394.61V403.597H407.776V405.643H402.351V420.855H400.034ZM426.759 403.597V420.855H424.466V407.443L419.486 420.855H416.847L411.867 407.443V420.855H409.574V403.597H412.681L418.179 418.415L423.652 403.597H426.759Z" fill="#1E2B2B"/>
</svg>
