<svg width="72" height="96" viewBox="0 0 72 96" fill="none" xmlns="http://www.w3.org/2000/svg">
<path d="M64.9934 24.3412C64.9076 24.3385 64.8192 24.3358 64.7335 24.3358H53.6931C50.7534 24.1546 48.3497 21.9697 47.8111 19.1143V7.10848C47.8111 6.82726 47.7923 6.55145 47.7575 6.28105C47.3555 3.11195 44.6731 0.662109 41.4227 0.662109H30.7252C27.1961 0.662109 24.3368 3.54729 24.3368 7.10848V17.9029C24.3368 21.3289 21.6866 24.1303 18.3396 24.3358H7.30188C7.21345 24.3358 7.1277 24.3385 7.04195 24.3412C3.63336 24.4818 0.913452 27.3102 0.913452 30.7821V41.5766C0.913452 45.1377 3.7727 48.0229 7.30188 48.0229H17.9993C21.2498 48.0229 23.9322 45.5731 24.3341 42.404C24.369 42.1336 24.3877 41.8578 24.3877 41.5766V29.5707C24.9263 26.718 27.3274 24.5304 30.2697 24.3493H41.7013C45.0456 24.5548 47.6959 27.3561 47.6985 30.7821V41.5279C47.6985 45.0891 50.5578 47.9743 54.087 47.9743H64.7335C68.2626 47.9743 71.1219 45.0891 71.1219 41.5279V30.7848C71.1219 27.3129 68.402 24.4818 64.9934 24.3439V24.3412Z" fill="#C6ED62"/>
<path d="M64.9584 71.6559C64.8726 71.6532 64.7842 71.6505 64.6984 71.6505H53.658C50.7184 71.4693 48.3147 69.2844 47.7761 66.429V54.4232C47.7761 54.142 47.7573 53.8662 47.7225 53.5957C47.3205 50.4266 44.6381 47.9768 41.3876 47.9768H30.6902C27.161 47.9768 24.3018 50.862 24.3018 54.4232V65.2176C24.3018 68.6436 21.6515 71.445 18.3046 71.6505H7.26685C7.17842 71.6505 7.09267 71.6532 7.00692 71.6559C3.59833 71.7938 0.878418 74.6222 0.878418 78.0968V88.8913C0.878418 92.4524 3.73767 95.3376 7.26685 95.3376H17.9643C21.2147 95.3376 23.8971 92.8878 24.2991 89.7187C24.3339 89.4483 24.3527 89.1725 24.3527 88.8913V76.8854C24.8913 74.03 27.295 71.8451 30.2347 71.664H41.6663C45.0106 71.8695 47.6608 74.6708 47.6635 78.0968V88.8426C47.6635 92.4038 50.5228 95.289 54.0519 95.289H64.6984C68.2276 95.289 71.0869 92.4038 71.0869 88.8426V78.0995C71.0869 74.6276 68.367 71.7965 64.9584 71.6586V71.6559Z" fill="#C6ED62"/>
</svg>
